<svg width="200" height="300" viewBox="0 0 200 300" fill="none" xmlns="http://www.w3.org/2000/svg">
  <!-- Neutral Posture Silhouette - Relaxed, natural stance -->
  <g opacity="0.85">
    <!-- Head - slight forward tilt -->
    <ellipse cx="102" cy="48" rx="32" ry="36" fill="currentColor" opacity="0.25"/>
    
    <!-- Neck - natural position -->
    <rect x="90" y="81" width="24" height="20" rx="4" fill="currentColor" opacity="0.2" transform="rotate(2 102 91)"/>
    
    <!-- Shoulders - relaxed, natural -->
    <path d="M52 105 Q72 98 102 98 Q132 98 152 105 L147 115 Q127 108 102 108 Q77 108 57 115 Z" fill="currentColor" opacity="0.2"/>
    
    <!-- Torso - neutral alignment with slight curve -->
    <path d="M74 108 L75 180 Q75 192 85 197 L120 195 Q130 190 129 180 L128 106 Q115 102 102 102 Q87 102 74 108 Z" fill="currentColor" opacity="0.22"/>
    
    <!-- Left Arm - naturally at side -->
    <path d="M74 110 Q60 115 55 132 Q52 152 55 175 L63 177 Q58 155 62 137 Q66 120 74 115 Z" fill="currentColor" opacity="0.18"/>
    
    <!-- Right Arm - naturally at side -->
    <path d="M128 108 Q142 113 147 130 Q150 150 147 173 L139 175 Q144 153 140 135 Q136 118 128 113 Z" fill="currentColor" opacity="0.18"/>
    
    <!-- Left Leg - natural stance -->
    <path d="M85 197 L82 262 Q80 277 78 290 L90 292 Q89 280 90 264 L93 200 Z" fill="currentColor" opacity="0.2"/>
    
    <!-- Right Leg - natural stance -->
    <path d="M120 195 L123 260 Q125 275 127 288 L115 290 Q116 278 115 262 L112 198 Z" fill="currentColor" opacity="0.2"/>
  </g>
</svg>
