<svg width="200" height="300" viewBox="0 0 200 300" fill="none" xmlns="http://www.w3.org/2000/svg">
  <!-- Slumped Posture Silhouette - Fatigued, hunched stance -->
  <g opacity="0.85">
    <!-- Head - forward and down -->
    <ellipse cx="108" cy="55" rx="32" ry="36" fill="currentColor" opacity="0.25"/>
    
    <!-- Neck - curved forward -->
    <path d="M95 88 Q100 95 98 105 L118 102 Q116 92 112 85 Z" fill="currentColor" opacity="0.2"/>
    
    <!-- Shoulders - rounded forward, drooping -->
    <path d="M58 118 Q75 108 105 105 Q135 108 155 118 L148 128 Q130 118 105 118 Q80 118 62 128 Z" fill="currentColor" opacity="0.2"/>
    
    <!-- Torso - curved spine, hunched forward -->
    <path d="M78 118 Q82 148 85 182 Q85 194 93 200 L117 198 Q127 192 126 182 Q128 148 125 115 Q115 112 105 112 Q90 112 78 118 Z" fill="currentColor" opacity="0.22"/>
    
    <!-- Left Arm - hanging forward -->
    <path d="M78 120 Q64 130 60 150 Q58 172 62 192 L70 194 Q65 174 68 155 Q72 138 78 128 Z" fill="currentColor" opacity="0.18"/>
    
    <!-- Right Arm - hanging forward -->
    <path d="M125 118 Q140 128 145 148 Q147 170 143 190 L135 192 Q140 172 137 153 Q133 136 125 126 Z" fill="currentColor" opacity="0.18"/>
    
    <!-- Left Leg - less grounded -->
    <path d="M93 200 L90 263 Q88 278 86 291 L98 293 Q97 281 98 265 L100 203 Z" fill="currentColor" opacity="0.2"/>
    
    <!-- Right Leg - less grounded -->
    <path d="M117 198 L120 261 Q122 276 124 289 L112 291 Q113 279 112 263 L110 201 Z" fill="currentColor" opacity="0.2"/>
    
    <!-- Fatigue shadow - subtle downward gradient -->
    <ellipse cx="105" cy="295" rx="30" ry="6" fill="currentColor" opacity="0.08"/>
  </g>
</svg>
