<svg width="200" height="300" viewBox="0 0 200 300" fill="none" xmlns="http://www.w3.org/2000/svg">
  <!-- Upright Posture Silhouette - Confident, straight stance -->
  <g opacity="0.85">
    <!-- Head - filled shape -->
    <ellipse cx="100" cy="45" rx="32" ry="36" fill="currentColor" opacity="0.25"/>
    
    <!-- Neck - solid connection -->
    <rect x="88" y="78" width="24" height="20" rx="4" fill="currentColor" opacity="0.2"/>
    
    <!-- Shoulders - broad and level -->
    <path d="M50 100 Q70 92 100 92 Q130 92 150 100 L145 110 Q125 105 100 105 Q75 105 55 110 Z" fill="currentColor" opacity="0.2"/>
    
    <!-- Torso - upright, strong posture -->
    <path d="M72 105 L72 178 Q72 190 82 195 L118 195 Q128 190 128 178 L128 105 Q115 100 100 100 Q85 100 72 105 Z" fill="currentColor" opacity="0.22"/>
    
    <!-- Left Arm -->
    <path d="M72 105 Q58 108 52 125 Q48 145 50 168 L58 170 Q55 148 60 130 Q65 115 72 112 Z" fill="currentColor" opacity="0.18"/>
    
    <!-- Right Arm -->
    <path d="M128 105 Q142 108 148 125 Q152 145 150 168 L142 170 Q145 148 140 130 Q135 115 128 112 Z" fill="currentColor" opacity="0.18"/>
    
    <!-- Left Leg -->
    <path d="M82 195 L78 260 Q76 275 74 288 L86 290 Q85 278 86 262 L90 198 Z" fill="currentColor" opacity="0.2"/>
    
    <!-- Right Leg -->
    <path d="M118 195 L122 260 Q124 275 126 288 L114 290 Q115 278 114 262 L110 198 Z" fill="currentColor" opacity="0.2"/>
    
    <!-- Upward energy glow - subtle gradient -->
    <ellipse cx="100" cy="30" rx="20" ry="8" fill="currentColor" opacity="0.1"/>
  </g>
</svg>
